<mxfile host="app.diagrams.net" modified="2023-11-26T23:22:56.905Z" agent="Mozilla/5.0 (Windows NT 10.0; Win64; x64) AppleWebKit/537.36 (KHTML, like Gecko) Chrome/119.0.0.0 Safari/537.36" etag="dx-rDVKUVFpdCNdwXRT6" version="22.1.4" type="device">
  <diagram name="Page-1" id="mcRJoiFZVbyGvoiC1dqz">
    <mxGraphModel dx="1050" dy="587" grid="1" gridSize="10" guides="1" tooltips="1" connect="1" arrows="1" fold="1" page="1" pageScale="1" pageWidth="850" pageHeight="1100" math="0" shadow="0">
      <root>
        <mxCell id="0" />
        <mxCell id="1" parent="0" />
        <mxCell id="tm53eODnrKpvhOiwJkyI-2" value="«Component»&lt;br&gt;&amp;lt;&amp;lt;Container (C4)&amp;gt;&amp;gt;&lt;br&gt;SPA" style="html=1;dropTarget=0;whiteSpace=wrap;verticalAlign=top;fillColor=#72C9F7;strokeColor=#000000;strokeWidth=2;" parent="1" vertex="1">
          <mxGeometry x="149.62" y="30" width="425.38" height="410" as="geometry" />
        </mxCell>
        <mxCell id="tm53eODnrKpvhOiwJkyI-3" value="" style="shape=module;jettyWidth=8;jettyHeight=4;fillColor=#72c9f7;" parent="tm53eODnrKpvhOiwJkyI-2" vertex="1">
          <mxGeometry x="1" width="20" height="20" relative="1" as="geometry">
            <mxPoint x="-27" y="7" as="offset" />
          </mxGeometry>
        </mxCell>
        <mxCell id="tm53eODnrKpvhOiwJkyI-13" value="«component»&lt;br&gt;&lt;b&gt;Component&lt;/b&gt;" style="html=1;dropTarget=0;whiteSpace=wrap;fillColor=#7ACFF5;" parent="1" vertex="1">
          <mxGeometry x="294" y="90" width="140" height="50" as="geometry" />
        </mxCell>
        <mxCell id="tm53eODnrKpvhOiwJkyI-14" value="" style="shape=module;jettyWidth=8;jettyHeight=4;fillColor=#7ACFF5;" parent="tm53eODnrKpvhOiwJkyI-13" vertex="1">
          <mxGeometry x="1" width="20" height="20" relative="1" as="geometry">
            <mxPoint x="-27" y="7" as="offset" />
          </mxGeometry>
        </mxCell>
        <mxCell id="tm53eODnrKpvhOiwJkyI-36" value="«component»&lt;br&gt;&lt;b&gt;Data Model&lt;/b&gt;" style="html=1;dropTarget=0;whiteSpace=wrap;fillColor=#7ACFF5;" parent="1" vertex="1">
          <mxGeometry x="294" y="340" width="140" height="50" as="geometry" />
        </mxCell>
        <mxCell id="tm53eODnrKpvhOiwJkyI-37" value="" style="shape=module;jettyWidth=8;jettyHeight=4;fillColor=#7ACFF5;" parent="tm53eODnrKpvhOiwJkyI-36" vertex="1">
          <mxGeometry x="1" width="20" height="20" relative="1" as="geometry">
            <mxPoint x="-27" y="7" as="offset" />
          </mxGeometry>
        </mxCell>
        <mxCell id="tm53eODnrKpvhOiwJkyI-95" value="" style="html=1;rounded=0;fillColor=#72C9F7;" parent="1" vertex="1">
          <mxGeometry x="566" y="225" width="18.5" height="20" as="geometry" />
        </mxCell>
        <mxCell id="tm53eODnrKpvhOiwJkyI-96" value="" style="endArrow=none;html=1;rounded=0;align=center;verticalAlign=top;endFill=0;labelBackgroundColor=none;endSize=2;entryX=1;entryY=0.5;entryDx=0;entryDy=0;entryPerimeter=0;" parent="1" source="tm53eODnrKpvhOiwJkyI-95" target="tm53eODnrKpvhOiwJkyI-98" edge="1">
          <mxGeometry relative="1" as="geometry">
            <mxPoint x="859.25" y="-22" as="targetPoint" />
          </mxGeometry>
        </mxCell>
        <mxCell id="tm53eODnrKpvhOiwJkyI-98" value="" style="shape=requiredInterface;html=1;verticalLabelPosition=bottom;sketch=0;rotation=-180;" parent="1" vertex="1">
          <mxGeometry x="633.5" y="225" width="10" height="20" as="geometry" />
        </mxCell>
        <mxCell id="tm53eODnrKpvhOiwJkyI-100" value="MDRoboISEP API" style="text;html=1;align=center;verticalAlign=middle;resizable=0;points=[];autosize=1;strokeColor=none;fillColor=none;fontStyle=1" parent="1" vertex="1">
          <mxGeometry x="578.5" y="190" width="120" height="30" as="geometry" />
        </mxCell>
        <mxCell id="Turkrqh6ArZdZiuTQP_s-1" value="«component»&lt;br&gt;&lt;b&gt;Service Info&lt;/b&gt;" style="html=1;dropTarget=0;whiteSpace=wrap;fillColor=#7ACFF5;" parent="1" vertex="1">
          <mxGeometry x="294" y="210" width="140" height="50" as="geometry" />
        </mxCell>
        <mxCell id="Turkrqh6ArZdZiuTQP_s-2" value="" style="shape=module;jettyWidth=8;jettyHeight=4;fillColor=#7ACFF5;" parent="Turkrqh6ArZdZiuTQP_s-1" vertex="1">
          <mxGeometry x="1" width="20" height="20" relative="1" as="geometry">
            <mxPoint x="-27" y="7" as="offset" />
          </mxGeometry>
        </mxCell>
        <mxCell id="Turkrqh6ArZdZiuTQP_s-8" value="" style="shape=providedRequiredInterface;html=1;verticalLabelPosition=bottom;sketch=0;rotation=-90;fillColor=#72c9f7;" parent="1" vertex="1">
          <mxGeometry x="349" y="290" width="30" height="30" as="geometry" />
        </mxCell>
        <mxCell id="Turkrqh6ArZdZiuTQP_s-10" value="" style="endArrow=none;html=1;rounded=0;exitX=0.5;exitY=0;exitDx=0;exitDy=0;entryX=0;entryY=0.5;entryDx=0;entryDy=0;entryPerimeter=0;" parent="1" source="tm53eODnrKpvhOiwJkyI-36" target="Turkrqh6ArZdZiuTQP_s-8" edge="1">
          <mxGeometry width="50" height="50" relative="1" as="geometry">
            <mxPoint x="572.54" y="457.29999999999995" as="sourcePoint" />
            <mxPoint x="362" y="317" as="targetPoint" />
          </mxGeometry>
        </mxCell>
        <mxCell id="Turkrqh6ArZdZiuTQP_s-11" value="" style="endArrow=none;html=1;rounded=0;exitX=1;exitY=0.5;exitDx=0;exitDy=0;exitPerimeter=0;entryX=0.5;entryY=1;entryDx=0;entryDy=0;" parent="1" source="Turkrqh6ArZdZiuTQP_s-8" target="Turkrqh6ArZdZiuTQP_s-1" edge="1">
          <mxGeometry width="50" height="50" relative="1" as="geometry">
            <mxPoint x="380" y="300" as="sourcePoint" />
            <mxPoint x="277" y="273" as="targetPoint" />
          </mxGeometry>
        </mxCell>
        <mxCell id="Turkrqh6ArZdZiuTQP_s-20" value="" style="endArrow=none;html=1;rounded=0;exitX=1;exitY=0.5;exitDx=0;exitDy=0;entryX=0;entryY=0.5;entryDx=0;entryDy=0;" parent="1" source="Turkrqh6ArZdZiuTQP_s-1" target="tm53eODnrKpvhOiwJkyI-95" edge="1">
          <mxGeometry width="50" height="50" relative="1" as="geometry">
            <mxPoint x="380" y="300" as="sourcePoint" />
            <mxPoint x="470" y="273" as="targetPoint" />
          </mxGeometry>
        </mxCell>
        <mxCell id="Turkrqh6ArZdZiuTQP_s-29" value="" style="shape=providedRequiredInterface;html=1;verticalLabelPosition=bottom;sketch=0;rotation=-90;fillColor=#72c9f7;" parent="1" vertex="1">
          <mxGeometry x="349" y="160" width="30" height="30" as="geometry" />
        </mxCell>
        <mxCell id="Turkrqh6ArZdZiuTQP_s-30" value="" style="endArrow=none;html=1;rounded=0;exitX=1;exitY=0.5;exitDx=0;exitDy=0;exitPerimeter=0;entryX=0.5;entryY=1;entryDx=0;entryDy=0;" parent="1" source="Turkrqh6ArZdZiuTQP_s-29" target="tm53eODnrKpvhOiwJkyI-13" edge="1">
          <mxGeometry width="50" height="50" relative="1" as="geometry">
            <mxPoint x="710" y="208.5" as="sourcePoint" />
            <mxPoint x="530" y="138.5" as="targetPoint" />
          </mxGeometry>
        </mxCell>
        <mxCell id="Turkrqh6ArZdZiuTQP_s-31" value="" style="endArrow=none;html=1;rounded=0;exitX=0.5;exitY=0;exitDx=0;exitDy=0;entryX=0;entryY=0.5;entryDx=0;entryDy=0;entryPerimeter=0;" parent="1" source="Turkrqh6ArZdZiuTQP_s-1" target="Turkrqh6ArZdZiuTQP_s-29" edge="1">
          <mxGeometry width="50" height="50" relative="1" as="geometry">
            <mxPoint x="457" y="211.5" as="sourcePoint" />
            <mxPoint x="467" y="168.5" as="targetPoint" />
          </mxGeometry>
        </mxCell>
      </root>
    </mxGraphModel>
  </diagram>
</mxfile>
